<svg width="29" height="22" viewBox="0 0 29 22" fill="none" xmlns="http://www.w3.org/2000/svg">
<path d="M9.70773 21.9409C9.54437 21.9409 9.39268 21.8592 9.311 21.7076C9.19432 21.4975 9.28766 21.2291 9.4977 21.1125C10.1278 20.7857 10.9913 20.1673 11.4814 19.1171C12.1115 17.7752 11.9364 16.3167 11.6681 16.2C11.598 16.165 11.3413 16.305 11.178 16.3867C10.7696 16.5967 10.1978 16.8884 9.5327 16.6667C8.87926 16.445 8.56421 15.8733 8.41252 15.5932C7.40902 13.7846 7.0823 9.05883 8.12081 6.70178C8.47086 5.91999 8.93761 5.45324 9.52104 5.31322C10.1161 5.1732 10.6062 5.41824 11.0029 5.61661C11.3297 5.77996 11.493 5.84997 11.5864 5.79163C11.9948 5.54659 11.9831 4.04135 11.3997 2.85115C10.8979 1.80098 10.0345 1.19422 9.39268 0.8675C9.18265 0.762483 9.0893 0.494106 9.20598 0.284072C9.311 0.0740374 9.57938 -0.0193154 9.78941 0.0973703C10.5479 0.482433 11.5747 1.20589 12.1815 2.47776C12.7882 3.73796 13.08 5.90831 12.0298 6.55009C11.5047 6.8768 10.9913 6.6201 10.5945 6.41007C10.2912 6.25838 9.99945 6.10668 9.7194 6.17669C9.33434 6.27004 9.06596 6.71345 8.91427 7.0635C8.00412 9.11717 8.28417 13.5862 9.17098 15.1732C9.32267 15.4415 9.4977 15.7332 9.81275 15.8383C10.1045 15.9433 10.3845 15.8149 10.7812 15.6049C11.1663 15.4065 11.598 15.1848 12.0531 15.4065C13.0333 15.8733 12.9749 17.9853 12.2748 19.4905C11.6797 20.7741 10.6529 21.4975 9.89443 21.8942C9.84776 21.9293 9.77774 21.9409 9.70773 21.9409Z" fill="#3D3D3C"/>
<path d="M8.33135 7.49541L0.443411 7.53042C0.198371 7.53042 0 7.33205 0 7.09868C0 6.85364 0.198369 6.65527 0.43174 6.65527L8.31969 6.62027C8.56473 6.62027 8.76309 6.81863 8.76309 7.052C8.77476 7.29704 8.57639 7.49541 8.33135 7.49541Z" fill="#3D3D3C"/>
<path d="M8.36578 15.3834L0.477835 15.4184C0.232795 15.4184 0.0344238 15.2201 0.0344238 14.9867C0.0344238 14.7417 0.232793 14.5433 0.466164 14.5433L8.35412 14.5083C8.59916 14.5083 8.79752 14.7067 8.79752 14.94C8.79752 15.1734 8.61082 15.3834 8.36578 15.3834Z" fill="#3D3D3C"/>
<path d="M18.9021 21.9063C18.8321 21.9063 18.762 21.8946 18.7037 21.8596C17.9452 21.4745 16.9184 20.7511 16.3116 19.4792C15.5882 17.9856 15.5182 15.8736 16.4983 15.3952C16.9534 15.1735 17.3851 15.3952 17.7702 15.5819C18.1669 15.7803 18.447 15.9086 18.7387 15.8036C19.0654 15.6869 19.2521 15.3369 19.3688 15.1268C20.2323 13.5282 20.4773 9.05917 19.5555 7.01718C19.3921 6.66712 19.1238 6.22371 18.7387 6.14203C18.5053 6.08369 18.3536 5.85032 18.412 5.61695C18.4703 5.38358 18.7037 5.23189 18.9371 5.29023C19.5205 5.43026 19.9989 5.88532 20.349 6.66711C21.4108 9.0125 21.1191 13.7383 20.1389 15.5586C19.9872 15.8386 19.6722 16.422 19.0304 16.6437C18.3653 16.8771 17.7935 16.5854 17.3851 16.3754C17.2218 16.2937 16.9534 16.1653 16.8951 16.1887C16.6267 16.317 16.475 17.7756 17.1168 19.1058C17.6185 20.156 18.482 20.7627 19.1238 21.0895C19.3338 21.1945 19.4271 21.4629 19.3105 21.6729C19.2171 21.8129 19.0654 21.9063 18.9021 21.9063Z" fill="#3D3D3C"/>
<path d="M17.0826 5.71008C16.8959 5.71008 16.7325 5.5934 16.6625 5.40671C15.7174 2.59458 17.8994 0.412556 18.6112 0.0508309C18.8212 -0.0658547 19.0896 0.0274981 19.2063 0.237532C19.3229 0.447566 19.2296 0.715937 19.0196 0.832623C18.7045 0.995982 16.6975 2.7346 17.5027 5.12665C17.5843 5.36003 17.456 5.60507 17.2226 5.68675C17.1759 5.69842 17.1293 5.71008 17.0826 5.71008Z" fill="#3D3D3C"/>
<path d="M28.0396 7.41381L20.1517 7.44881C19.9066 7.44881 19.7083 7.25044 19.7083 7.01707C19.7083 6.77203 19.9066 6.57367 20.14 6.57367L28.0279 6.53867C28.273 6.53867 28.4713 6.73703 28.4713 6.9704C28.483 7.21544 28.2846 7.41381 28.0396 7.41381Z" fill="#3D3D3C"/>
<path d="M28.074 15.3015L20.1861 15.3365C19.941 15.3365 19.7427 15.1382 19.7427 14.9048C19.7427 14.6598 19.941 14.4614 20.1744 14.4614L28.0624 14.4264C28.3074 14.4264 28.5058 14.6248 28.5058 14.8581C28.5174 15.1032 28.3191 15.3015 28.074 15.3015Z" fill="#3D3D3C"/>
</svg>
