<svg width="16" height="15" viewBox="0 0 16 15" fill="none" xmlns="http://www.w3.org/2000/svg">
<path d="M15.3917 10.0417H14.2C12.6167 10.0417 11.2833 8.85 11.15 7.33333C11.075 6.46667 11.3917 5.6 12.025 4.98333C12.5583 4.43333 13.3 4.125 14.1 4.125H15.3917C15.6333 4.125 15.8333 3.925 15.8083 3.68333C15.625 1.65833 14.2833 0.275 12.2917 0.0416666C12.0917 0.0083333 11.8833 0 11.6667 0H4.16667C3.93333 0 3.70833 0.0166666 3.49167 0.05C1.36667 0.316667 0 1.9 0 4.16667V10C0 12.3 1.86667 14.1667 4.16667 14.1667H11.6667C14 14.1667 15.6083 12.7083 15.8083 10.4833C15.8333 10.2417 15.6333 10.0417 15.3917 10.0417ZM9.16667 5.20833H4.16667C3.825 5.20833 3.54167 4.925 3.54167 4.58333C3.54167 4.24167 3.825 3.95833 4.16667 3.95833H9.16667C9.50833 3.95833 9.79167 4.24167 9.79167 4.58333C9.79167 4.925 9.50833 5.20833 9.16667 5.20833Z" fill="#C8EE44"/>
</svg>
